<?xml version="1.0" encoding="UTF-8" standalone="no"?>
<!-- Created with Inkscape (http://www.inkscape.org/) -->

<svg
   width="27.000128"
   height="25.045731"
   viewBox="0 0 7.1437837 6.6266829"
   version="1.1"
   id="svg5"
   xml:space="preserve"
   inkscape:version="1.3.2 (091e20e, 2023-11-25, custom)"
   sodipodi:docname="logga.svg"
   xmlns:inkscape="http://www.inkscape.org/namespaces/inkscape"
   xmlns:sodipodi="http://sodipodi.sourceforge.net/DTD/sodipodi-0.dtd"
   xmlns="http://www.w3.org/2000/svg"
   xmlns:svg="http://www.w3.org/2000/svg"><sodipodi:namedview
     id="namedview7"
     pagecolor="#ffffff"
     bordercolor="#000000"
     borderopacity="0.25"
     inkscape:showpageshadow="2"
     inkscape:pageopacity="0.0"
     inkscape:pagecheckerboard="true"
     inkscape:deskcolor="#d1d1d1"
     inkscape:document-units="mm"
     showgrid="false"
     inkscape:zoom="16.710734"
     inkscape:cx="-4.1290825"
     inkscape:cy="8.7668202"
     inkscape:window-width="3440"
     inkscape:window-height="1334"
     inkscape:window-x="-11"
     inkscape:window-y="-11"
     inkscape:window-maximized="1"
     inkscape:current-layer="layer1"
     inkscape:pageshadow="2"
     fit-margin-top="0"
     fit-margin-left="0"
     fit-margin-right="0"
     fit-margin-bottom="0"
     units="px"
     lock-margins="true" /><defs
     id="defs2" /><g
     inkscape:label="Lager 1"
     inkscape:groupmode="layer"
     id="layer1"
     transform="translate(-94.237756,-176.95049)"><path
       style="fill:#000000;fill-opacity:1;stroke-width:0.0264583"
       d="m 97.7832,183.55296 c -0.409994,-0.0398 -0.811202,-0.15367 -1.164167,-0.33029 l -0.224896,-0.11254 -0.07433,0.0559 c -0.05646,0.0424 -0.110528,0.0554 -0.224896,0.0538 -0.16804,-0.002 -0.357612,-0.0547 -0.334342,-0.0923 0.03011,-0.0487 0.184522,-0.111 0.315043,-0.12706 l 0.133315,-0.0164 -0.09573,-0.0594 c -0.12219,-0.0758 -0.131651,-0.0745 -0.195731,0.0276 -0.05488,0.0874 -0.129218,0.11456 -0.238636,0.0871 -0.0806,-0.0202 -0.109308,-0.11078 -0.05437,-0.17148 0.02314,-0.0256 0.04207,-0.0664 0.04207,-0.0907 0,-0.072 0.106158,-0.0664 0.215275,0.0113 0.03889,0.0277 0.07926,0.0503 0.0897,0.0503 0.02955,0 -0.04063,-0.0759 -0.127032,-0.13746 -0.07728,-0.055 -0.07898,-0.0551 -0.1611,-0.005 -0.06195,0.0375 -0.133301,0.0502 -0.281431,0.0502 -0.252739,0 -0.414795,-0.0607 -0.544006,-0.20371 -0.0867,-0.096 -0.09253,-0.11083 -0.05231,-0.13334 0.0249,-0.0139 0.198019,-0.0212 0.384709,-0.0161 0.364765,0.01 0.400938,-0.0106 0.172736,-0.0977 -0.08523,-0.0326 -0.127308,-0.0365 -0.166417,-0.0155 -0.05985,0.032 -0.08576,0.0157 -0.08576,-0.0539 0,-0.0618 0.03331,-0.061 0.207417,0.005 l 0.141271,0.0537 -0.05405,-0.0759 c -0.07949,-0.11163 -0.109091,-0.12851 -0.254953,-0.14535 -0.3628,-0.0419 -0.522417,-0.11649 -0.609493,-0.28487 -0.04349,-0.0841 -0.05112,-0.19906 -0.0147,-0.22156 0.04452,-0.0275 0.443819,0.14498 0.554087,0.23937 l 0.109297,0.0936 -0.07785,-0.16461 c -0.04282,-0.0905 -0.08735,-0.1731 -0.09897,-0.18346 -0.01161,-0.0104 -0.07927,-0.0329 -0.150351,-0.0502 -0.183725,-0.0445 -0.32047,-0.12061 -0.396142,-0.22036 -0.07801,-0.10283 -0.175771,-0.38116 -0.175771,-0.50045 v -0.0852 l 0.07276,0.0672 c 0.04002,0.037 0.128415,0.10463 0.196438,0.15037 0.06802,0.0457 0.152729,0.12028 0.188236,0.16565 l 0.06456,0.0825 -0.06188,-0.1816 c -0.06385,-0.18739 -0.08357,-0.46569 -0.0381,-0.53757 0.06836,-0.10806 0.2691,0.16343 0.308415,0.4171 0.01113,0.0718 0.04412,0.1405 0.08909,0.18546 0.03928,0.0393 0.07931,0.0892 0.08897,0.11085 0.0097,0.0218 0.02353,0.0276 0.03089,0.013 0.08219,-0.16308 0.228797,-0.30908 0.269498,-0.26838 0.03304,0.033 0.01203,0.25041 -0.03264,0.33773 -0.02515,0.0492 -0.09344,0.13379 -0.151735,0.18804 l -0.105998,0.0986 0.02655,0.16594 0.02655,0.16595 0.0037,-0.16031 c 0.0038,-0.16448 0.05144,-0.27246 0.105503,-0.23905 0.04266,0.0264 0.03801,0.23749 -0.0076,0.34675 -0.04694,0.11234 -0.02821,0.24662 0.04764,0.34163 l 0.05662,0.0709 5e-4,-0.16983 c 5e-4,-0.17624 0.04779,-0.28474 0.100987,-0.23154 0.0183,0.0183 0.01271,0.0427 -0.0174,0.076 -0.05726,0.0633 -0.05776,0.24611 -0.0011,0.39453 0.02381,0.0623 0.0506,0.11335 0.05953,0.11337 0.0089,2e-5 0.01229,-0.0635 0.0074,-0.14112 -0.009,-0.14458 0.04753,-0.33517 0.09945,-0.33517 0.042,0 0.102188,0.10723 0.129971,0.23157 0.03019,0.13513 -7e-4,0.29587 -0.06614,0.34369 -0.04334,0.0317 -0.03897,0.0422 0.05808,0.13923 l 0.104951,0.10496 -0.0023,-0.29177 c -0.002,-0.25211 0.0034,-0.29068 0.03938,-0.28374 0.05024,0.01 0.07264,0.0995 0.03119,0.12517 -0.04819,0.0298 -0.04304,0.37285 0.007,0.46971 0.05615,0.10858 0.112439,0.14677 0.08592,0.0583 -0.03923,-0.13088 -0.04361,-0.27674 -0.01019,-0.33939 0.05614,-0.10524 0.09717,-0.0953 0.156057,0.0378 0.05458,0.1234 0.06039,0.30947 0.01295,0.41471 -0.01504,0.0334 4e-4,0.0551 0.06145,0.0867 0.0946,0.0489 0.105569,0.0214 0.04089,-0.10263 -0.02864,-0.0549 -0.03211,-0.0855 -0.01196,-0.10561 0.03374,-0.0337 0.08147,0.0267 0.06172,0.0782 -0.0068,0.0178 0.0058,0.076 0.0281,0.12937 0.03535,0.0846 0.07186,0.11182 0.286073,0.21321 0.549162,0.25992 1.24357,0.35748 1.859507,0.26125 0.07555,-0.0118 0.09821,-0.008 0.0792,0.0122 -0.0235,0.0254 -0.544311,0.0899 -0.648052,0.0803 -0.02183,-0.002 -0.128984,-0.0124 -0.238125,-0.023 z m -1.519797,-0.41204 c 0.047,-0.0383 0.04724,-0.0405 0.0029,-0.0265 -0.02666,0.008 -0.113679,0.0154 -0.193384,0.0154 -0.08987,0 -0.138708,0.0101 -0.128566,0.0265 0.0264,0.0427 0.261677,0.0314 0.319057,-0.0154 z m 0.0068,-0.0778 c 0.0046,-0.004 -0.03827,-0.0152 -0.09532,-0.0249 -0.06986,-0.0118 -0.13306,-0.004 -0.193605,0.0232 -0.08868,0.0401 -0.08741,0.0405 0.09532,0.0249 0.101865,-0.009 0.188987,-0.0191 0.193605,-0.0232 z m -0.424389,-0.0802 c 0.09178,-0.0643 0.07015,-0.0911 -0.07349,-0.0911 -0.135223,0 -0.168153,0.0329 -0.100541,0.10054 0.04316,0.0432 0.103615,0.0399 0.174029,-0.009 z m -0.01796,-0.17223 c -0.06548,-0.0545 -0.111089,-0.0564 -0.128097,-0.005 -0.01,0.03 0.04514,0.0523 0.138717,0.0562 0.04904,0.002 0.04826,-0.002 -0.01062,-0.0507 z m 0.431123,0.0128 c 0.02586,-0.0674 0.01878,-0.13854 -0.02398,-0.24088 -0.0559,-0.13378 -0.07546,-0.0939 -0.05367,0.10955 0.01812,0.16925 0.0454,0.21537 0.07765,0.13133 z m -0.124018,-0.25581 c -0.0063,-0.0327 -0.01147,-0.006 -0.01147,0.0595 0,0.0655 0.0052,0.0923 0.01147,0.0595 0.0063,-0.0327 0.0063,-0.0863 0,-0.11907 z m -0.480136,0.1012 c 0.04971,-0.0365 0.0491,-0.0386 -0.01897,-0.0646 -0.03869,-0.0148 -0.172955,-0.0352 -0.29838,-0.0454 -0.125425,-0.0102 -0.234375,-0.0288 -0.242112,-0.0413 -0.01797,-0.0291 0.08367,-0.0277 0.330962,0.004 0.108012,0.014 0.201391,0.0205 0.20751,0.0144 0.0061,-0.006 -0.02868,-0.0326 -0.07732,-0.0589 -0.07003,-0.0378 -0.149982,-0.0479 -0.383863,-0.0482 -0.162479,-3e-4 -0.304486,0.009 -0.315572,0.0197 -0.0334,0.0333 0.122352,0.17402 0.238124,0.2151 0.145207,0.0515 0.491998,0.0545 0.559628,0.005 z m 0.161512,-0.45708 c -0.02535,-0.25928 -0.06886,-0.25593 -0.06882,0.005 2.6e-5,0.22042 0.0031,0.23419 0.04116,0.18521 0.02998,-0.0386 0.03748,-0.0902 0.02766,-0.19051 z m -0.108872,-0.16098 c -0.05285,-0.0528 -0.08325,0.19361 -0.03682,0.29858 0.03398,0.0768 0.03537,0.0735 0.04322,-0.10235 0.0045,-0.0999 0.0016,-0.18825 -0.0064,-0.19623 z m -0.536026,-0.0845 c -0.04672,-0.0425 -0.136021,-0.0903 -0.198437,-0.1063 -0.180792,-0.0462 -0.240533,-0.0752 -0.333579,-0.1622 -0.104135,-0.0973 -0.127285,-0.0871 -0.07591,0.0336 0.06497,0.15259 0.157861,0.21458 0.396201,0.26439 0.29797,0.0623 0.310639,0.0605 0.211722,-0.0295 z m -0.151256,-0.17158 c -0.07822,-0.0639 -0.357044,-0.18378 -0.378253,-0.16257 -0.03412,0.0341 0.304777,0.20578 0.442484,0.22413 0.0073,0.001 -0.02163,-0.0267 -0.06423,-0.0616 z m 0.128942,-0.36053 c -0.02407,-0.0641 -0.06533,-0.17565 -0.0917,-0.24777 l -0.04794,-0.13113 -0.01827,0.0974 c -0.01946,0.10371 -0.0026,0.16894 0.113521,0.4386 l 0.07229,0.1679 0.0079,-0.10417 c 0.0044,-0.0573 -0.01176,-0.15666 -0.03582,-0.22082 z m 0.222611,0.18763 c 0,-0.025 -0.0084,-0.0201 -0.02274,0.0132 -0.01251,0.0291 -0.02274,0.0708 -0.02274,0.0926 0,0.025 0.0084,0.0201 0.02274,-0.0132 0.01251,-0.0291 0.02274,-0.0708 0.02274,-0.0926 z m -0.711359,-0.45641 c -0.166962,-0.16371 -0.30699,-0.29036 -0.311173,-0.28145 -0.0042,0.009 0.01778,0.0841 0.04881,0.16699 0.06779,0.18118 0.191926,0.31261 0.34707,0.36747 0.238477,0.0843 0.228284,0.0539 -0.08471,-0.25301 z m 0.723622,0.12136 c 0.04496,-0.0638 0.07944,-0.15248 0.08662,-0.2228 l 0.01193,-0.11684 -0.0937,0.19629 c -0.05153,0.10795 -0.108372,0.21407 -0.126307,0.23581 -0.02659,0.0322 -0.02529,0.0371 0.0071,0.0265 0.02183,-0.007 0.0733,-0.0607 0.114377,-0.11898 z m -0.0648,-0.1027 c 0.09009,-0.1886 0.0962,-0.20871 0.05588,-0.18379 -0.05191,0.0321 -0.187511,0.35695 -0.148989,0.35695 0.0057,0 0.04761,-0.0779 0.09311,-0.17316 z m -0.478022,0.0731 c -0.132301,-0.18033 -0.18181,-0.2325 -0.299156,-0.31525 -0.119014,-0.0839 -0.109778,-0.0704 0.09202,0.13455 0.223823,0.22733 0.272505,0.2698 0.207136,0.1807 z m 0.0048,-0.43714 c -0.06701,-0.31357 -0.09202,-0.37496 -0.121554,-0.29829 -0.02774,0.072 0.0243,0.34684 0.09814,0.51826 0.08563,0.1988 0.0947,0.11361 0.02341,-0.21997 z m 0.136725,0.19984 c 0.0103,-0.18211 -0.05394,-0.42146 -0.132092,-0.49219 -0.04179,-0.0378 -0.0405,-0.019 0.01295,0.18871 0.03265,0.1269 0.05998,0.26346 0.06074,0.30348 8e-4,0.04 0.01328,0.0728 0.02783,0.0728 0.01455,0 0.02831,-0.0327 0.03057,-0.0728 z m 4.066839,2.09298 c -0.136371,-0.0241 -0.348623,-0.17645 -0.430329,-0.30891 -0.131497,-0.21318 -0.100668,-0.51099 0.07698,-0.74365 0.06945,-0.091 0.06919,-0.026 -5e-4,0.11267 -0.204255,0.40666 0.0398,0.82224 0.483955,0.82409 0.241459,0.001 0.419576,-0.10477 0.511382,-0.30369 0.06901,-0.14952 0.06271,-0.29485 -0.01997,-0.46077 -0.05904,-0.11848 -0.128754,-0.18715 -0.445901,-0.43922 -0.402561,-0.31995 -0.463754,-0.40136 -0.462495,-0.61529 0.0012,-0.19788 0.156082,-0.41291 0.3371,-0.46791 0.07676,-0.0233 0.312211,-0.0234 0.467507,-8e-5 l 0.120854,0.0181 v 0.18377 c 0,0.1834 -0.03227,0.22431 -0.06154,0.078 -0.03221,-0.16108 -0.287568,-0.25765 -0.474611,-0.1795 -0.187985,0.0785 -0.269352,0.35153 -0.150003,0.50326 0.03007,0.0382 0.211645,0.1938 0.403489,0.34571 0.349578,0.2768 0.428149,0.36262 0.508393,0.55524 0.04729,0.11352 0.05612,0.36444 0.01643,0.46661 -0.0553,0.14234 -0.18754,0.28512 -0.327512,0.3536 -0.141654,0.0693 -0.397791,0.10538 -0.55328,0.0779 z m -1.557412,-0.83984 c -0.08004,-0.0178 -0.182668,-0.052 -0.22807,-0.0761 -0.0971,-0.0515 -0.327555,-0.29995 -0.327555,-0.35312 0,-0.0647 0.03933,-0.0397 0.09226,0.0586 0.179558,0.33342 0.681174,0.45525 1.064749,0.2586 0.269019,-0.13791 0.334938,-0.3938 0.217222,-0.84323 -0.08633,-0.32958 -0.07662,-0.32307 -0.277037,-0.18585 -0.304497,0.20846 -0.762001,0.30612 -1.002992,0.21408 -0.122699,-0.0469 -0.290304,-0.20899 -0.333505,-0.32262 -0.0139,-0.0366 -0.02528,-0.12558 -0.02528,-0.19781 0,-0.15444 0.10868,-0.39174 0.25213,-0.55052 0.05051,-0.0559 0.09183,-0.10794 0.09183,-0.11562 0,-0.008 -0.04,-0.0734 -0.08889,-0.14608 -0.120412,-0.17893 -0.163488,-0.35879 -0.266061,-1.11094 -0.04818,-0.35333 -0.0935,-0.64831 -0.100709,-0.65551 -0.01559,-0.0156 -0.580126,1.25184 -0.663562,1.48974 -0.0319,0.0909 -0.06547,0.16537 -0.07461,0.16537 -0.0091,0 -0.186835,-0.36904 -0.394883,-0.82009 -0.208048,-0.45104 -0.383458,-0.81489 -0.3898,-0.80855 -0.0063,0.006 -0.04004,0.33445 -0.07489,0.72913 -0.02457,0.34708 -0.215375,0.79298 0.09549,0.84069 l -0.568011,0.007 c 0.451289,-0.75902 0.487864,-1.79829 0.439669,-1.85404 -0.108708,-0.3245 -0.371672,-0.51762 -0.691866,-0.52857 0,-0.0148 0.07323,-0.0265 0.166784,-0.0265 1.01049,0.20452 0.958723,1.42181 1.445151,2.03729 l 0.823272,-1.77271 c 0.0098,0 0.03799,0.12799 0.0626,0.28443 0.02461,0.15643 0.09127,0.58307 0.148116,0.94808 0.134167,0.86142 0.186589,1.01935 0.405267,1.22092 0.112067,0.1033 0.308547,0.18798 0.452722,0.19511 0.03216,0.002 0.01654,0.0121 -0.03787,0.0255 -0.05452,0.0134 -0.147003,0.0123 -0.224896,-0.003 -0.07276,-0.0141 -0.162057,-0.0312 -0.198438,-0.038 -0.05491,-0.0103 -0.09039,0.0156 -0.208835,0.15227 -0.07848,0.0906 -0.165963,0.21663 -0.194408,0.28015 -0.04515,0.10082 -0.04769,0.1299 -0.01995,0.22896 0.04027,0.14382 0.167112,0.26739 0.306412,0.29851 0.219654,0.0491 0.625323,-0.0535 0.88015,-0.22245 0.116429,-0.0772 0.138867,-0.10412 0.126233,-0.15138 -0.155896,-0.58315 -0.203472,-0.7949 -0.218151,-0.97092 -0.0097,-0.11607 -0.02348,-0.21103 -0.03067,-0.21103 -0.0072,0 -0.129766,0.0954 -0.272388,0.21203 l -0.259312,0.21202 -0.0707,-0.0927 c -0.03889,-0.051 -0.06402,-0.11012 -0.05585,-0.13141 0.01353,-0.0353 0.471958,-0.41438 0.612071,-0.50619 0.04555,-0.0298 0.0689,-0.0902 0.104018,-0.26893 0.141863,-0.72201 0.517887,-1.14064 0.873135,-0.97206 0.179898,0.0854 0.220957,0.27191 0.110519,0.50213 -0.10479,0.21844 -0.282498,0.41365 -0.650145,0.71417 l -0.348863,0.28516 0.01767,0.18825 c 0.03505,0.37335 0.196113,1.04815 0.250175,1.04815 0.03925,0 0.250744,-0.2508 0.420439,-0.49856 0.17204,-0.25118 0.281518,-0.36017 0.420152,-0.41827 0.178822,-0.0749 0.421521,-0.0257 0.568763,0.1153 0.09717,0.0931 0.06524,0.13003 -0.0418,0.0484 -0.286835,-0.21878 -0.584536,-0.18153 -0.772182,0.0966 -0.15054,0.22315 -0.378424,0.5125 -0.4828,0.61302 l -0.105934,0.10202 0.07759,0.22871 c 0.138254,0.40752 0.127956,0.65339 -0.03515,0.83915 -0.09925,0.11304 -0.224838,0.17989 -0.412798,0.21973 -0.166384,0.0353 -0.186908,0.0349 -0.375729,-0.007 z m 0.876565,-3.25362 c 0.309179,-0.27718 0.511459,-0.54307 0.483834,-0.63598 -0.02727,-0.0917 -0.10845,-0.1571 -0.195031,-0.1571 -0.237274,0 -0.556998,0.49182 -0.647579,0.99614 -0.01649,0.0918 -0.01381,0.0986 0.0297,0.075 0.0263,-0.0143 0.174392,-0.13941 0.329081,-0.27809 z m 2.609508,2.77237 c -0.01,-0.01 0.0159,-0.0846 0.0569,-0.16653 0.22705,-0.45427 0.34469,-1.11026 0.29403,-1.63966 -0.15009,-1.56853 -1.30332,-2.75938 -2.876012,-2.96983 -0.645487,-0.0864 -1.446798,0.0841 -2.032513,0.43249 -0.163416,0.0972 -0.23527,0.10817 -0.118668,0.0181 0.105387,-0.0814 0.533666,-0.28306 0.753442,-0.3548 0.530124,-0.17305 1.185616,-0.20979 1.693001,-0.0949 0.651697,0.14758 1.151741,0.41188 1.61897,0.8557 0.65331,0.62058 1.01419,1.46989 1.01419,2.38681 0,0.37511 -0.0452,0.66529 -0.15878,1.01865 -0.0872,0.27134 -0.21612,0.54232 -0.24451,0.51392 z"
       id="path1142"
       sodipodi:nodetypes="cscsssscssssssssssssssssscssssscssssscssscssssssssscccssssccssssssscsccssssssscssssssssccsssssssssssssssssssssssssssssssssssscssssscsssssssssssssssscssscsscsssssssssssssscsssssssssssssssssssscsscsscsssscsccssssssssccsssssssssssssssssssccccccccsssssssssssscssscssssssscsssssssscsssssssssssssssssssssss" /></g></svg>
